<svg width="387" height="52" viewBox="0 0 387 52" fill="none" xmlns="http://www.w3.org/2000/svg">
<g clip-path="url(#clip0_1401_180)">
<path d="M0 25V27" stroke="#474747"/>
<path d="M3 24V28" stroke="#474747"/>
<path d="M6 21V31" stroke="#474747"/>
<path d="M9 24V28" stroke="#474747"/>
<path d="M12 22V30" stroke="#474747"/>
<path d="M15 18V34" stroke="#474747"/>
<path d="M18 11V41" stroke="#474747"/>
<path d="M21 16V36" stroke="#474747"/>
<path d="M24 19V33" stroke="#474747"/>
<path d="M27 10V42" stroke="#474747"/>
<path d="M30 19V33" stroke="#474747"/>
<path d="M33 19V33" stroke="#474747"/>
<path d="M36 16V36" stroke="#474747"/>
<path d="M39 23V29" stroke="#474747"/>
<path d="M42 16V36" stroke="#474747"/>
<path d="M45 21V31" stroke="#474747"/>
<path d="M48 20V32" stroke="#474747"/>
<path d="M51 15V37" stroke="#474747"/>
<path d="M54 16V36" stroke="#474747"/>
<path d="M57 18V34" stroke="#474747"/>
<path d="M60 10V42" stroke="#474747"/>
<path d="M63 10V42" stroke="#474747"/>
<path d="M66 22V30" stroke="#474747"/>
<path d="M69 20.5V31.5" stroke="#474747"/>
<path d="M72 7V45" stroke="#474747"/>
<path d="M75 4V48" stroke="#474747"/>
<path d="M78 10V42" stroke="#474747"/>
<path d="M81 4V48" stroke="#474747"/>
<path d="M84 11V41" stroke="#474747"/>
<path d="M87 22V30" stroke="#474747"/>
<path d="M90 14V38" stroke="#474747"/>
<path d="M93 16V36" stroke="#474747"/>
<path d="M96 16V36" stroke="#474747"/>
<path d="M99 8V44" stroke="#474747"/>
<path d="M102 8V44" stroke="#474747"/>
<path d="M105 9V43" stroke="#474747"/>
<path d="M108 9V43" stroke="#474747"/>
<path d="M111 14V38" stroke="#474747"/>
<path d="M114 14V38" stroke="#474747"/>
<path d="M117 8V44" stroke="#474747"/>
<path d="M120 8V44" stroke="#474747"/>
<path d="M123 21V31" stroke="#474747"/>
<path d="M126 21V31" stroke="#474747"/>
<path d="M129 21V31" stroke="#474747"/>
<path d="M132 21V31" stroke="#474747"/>
<path d="M135 7V45" stroke="#474747"/>
<path d="M138 7V45" stroke="#474747"/>
<path d="M141 9V43" stroke="#474747"/>
<path d="M144 9V43" stroke="#474747"/>
<path d="M147 13V39" stroke="#474747"/>
<path d="M150 13V39" stroke="#474747"/>
<path d="M153 7V45" stroke="#474747"/>
<path d="M156 7V45" stroke="#474747"/>
<path d="M159 19V33" stroke="#474747"/>
<path d="M162 19V33" stroke="#474747"/>
<path d="M165 14V38" stroke="#474747"/>
<path d="M168 14V38" stroke="#474747"/>
<path d="M171 23V29" stroke="#474747"/>
<path d="M174 23V29" stroke="#474747"/>
<path d="M177 15V37" stroke="#474747"/>
<path d="M180 15V37" stroke="#474747"/>
<path d="M183 20.5V31.5" stroke="#474747"/>
<path d="M186 14V38" stroke="#474747"/>
<path d="M189 13V39" stroke="#474747"/>
<path d="M192 13V39" stroke="#474747"/>
<path d="M195 22V30" stroke="#474747"/>
<path d="M198 22V30" stroke="#474747"/>
<path d="M201 5.5V46.5" stroke="#474747"/>
<path d="M204 13V39" stroke="#474747"/>
<path d="M207 19V33" stroke="#474747"/>
<path d="M210 25V27" stroke="#474747"/>
<path d="M213 15V37" stroke="#474747"/>
<path d="M216 15V37" stroke="#474747"/>
<path d="M219 20V32" stroke="#474747"/>
<path d="M222 20V32" stroke="#474747"/>
<path d="M225 16V36" stroke="#474747"/>
<path d="M228 19V33" stroke="#474747"/>
<path d="M231 19V33" stroke="#474747"/>
<path d="M234 23V29" stroke="#474747"/>
<path d="M237 23V29" stroke="#474747"/>
<path d="M240 15V37" stroke="#474747"/>
<path d="M243 15V37" stroke="#474747"/>
<path d="M246 22V30" stroke="#474747"/>
<path d="M249 22V30" stroke="#474747"/>
<path d="M252 22V30" stroke="#474747"/>
<path d="M255 21V31" stroke="#474747"/>
<path d="M258 9V43" stroke="#474747"/>
<path d="M261 12V40" stroke="#474747"/>
<path d="M264 15V37" stroke="#474747"/>
<path d="M267 23V29" stroke="#474747"/>
<path d="M270 20V32" stroke="#474747"/>
<path d="M273 22V30" stroke="#474747"/>
<path d="M276 12V40" stroke="#474747"/>
<path d="M279 8V44" stroke="#474747"/>
<path d="M282 5V47" stroke="#474747"/>
<path d="M285 17V35" stroke="#474747"/>
<path d="M288 20.5V31.5" stroke="#474747"/>
<path d="M291 5V47" stroke="#474747"/>
<path d="M294 6V46" stroke="#474747"/>
<path d="M297 16V36" stroke="#474747"/>
<path d="M300 13V39" stroke="#474747"/>
<path d="M303 15V37" stroke="#474747"/>
<path d="M306 16V36" stroke="#474747"/>
<path d="M309 21V31" stroke="#474747"/>
<path d="M312 22V30" stroke="#474747"/>
<path d="M315 15V37" stroke="#474747"/>
<path d="M318 14V38" stroke="#474747"/>
<path d="M321 17V35" stroke="#474747"/>
<path d="M324 15V37" stroke="#474747"/>
<path d="M327 7V45" stroke="#474747"/>
<path d="M330 14V38" stroke="#474747"/>
<path d="M333 19V33" stroke="#474747"/>
<path d="M336 22V30" stroke="#474747"/>
<path d="M339 22V30" stroke="#474747"/>
<path d="M342 19V33" stroke="#474747"/>
<path d="M345 23V29" stroke="#474747"/>
<path d="M348 19V33" stroke="#474747"/>
<path d="M351 22V30" stroke="#474747"/>
<path d="M354 21V31" stroke="#474747"/>
<path d="M357 18V34" stroke="#474747"/>
<path d="M360 14V38" stroke="#474747"/>
<path d="M363 23V29" stroke="#474747"/>
<path d="M366 17V35" stroke="#474747"/>
<path d="M369 22V30" stroke="#474747"/>
<path d="M372 16V36" stroke="#474747"/>
<path d="M375 12V40" stroke="#474747"/>
<path d="M378 12V40" stroke="#474747"/>
<path d="M381 23V29" stroke="#474747"/>
<path d="M384 18V34" stroke="#474747"/>
<path d="M387 20V32" stroke="#474747"/>
</g>
<defs>
<clipPath id="clip0_1401_180">
<rect width="387" height="52" fill="white"/>
</clipPath>
</defs>
</svg>
