<svg width="158" height="33" viewBox="0 0 158 33" fill="none" xmlns="http://www.w3.org/2000/svg">
<path fill-rule="evenodd" clip-rule="evenodd" d="M25.6018 0.858419C25.886 1.0728 26.0531 1.40814 26.0531 1.76414V7.41154C26.0535 7.42865 26.0535 7.44571 26.0531 7.46273L26.0531 23.0216C26.0529 24.0077 25.7315 24.9668 25.1376 25.7539C24.5437 26.541 23.7096 27.1133 22.7615 27.3841L20.7725 27.9522C20.2849 28.0982 19.7733 28.1465 19.267 28.0941C18.7576 28.0414 18.2638 27.8879 17.8143 27.6426C17.3647 27.3973 16.9685 27.065 16.6486 26.665C16.3287 26.2651 16.0916 25.8056 15.951 25.3132C15.8103 24.8207 15.7691 24.3053 15.8296 23.7967C15.89 23.2882 16.0511 22.7968 16.3033 22.3511C16.5555 21.9054 16.8938 21.5142 17.2985 21.2005C17.7008 20.8887 18.1607 20.6596 18.6518 20.5261L22.1383 19.53C22.6124 19.3946 23.0294 19.1084 23.3264 18.7149C23.6233 18.3214 23.7839 17.8417 23.7841 17.3487V8.94059L10.1702 12.8303V27.5596C10.17 28.5456 9.84869 29.5047 9.2548 30.2918C8.66092 31.079 7.82678 31.6512 6.87867 31.9221L4.88198 32.4923L4.86518 32.497C3.88604 32.7605 2.84255 32.6282 1.96005 32.1289C1.07755 31.6296 0.426843 30.8032 0.148432 29.8282C-0.129979 28.8532 -0.0137539 27.8078 0.472012 26.9178C0.957777 26.0277 1.77411 25.3644 2.74473 25.0711L2.76123 25.0663L6.25551 24.0679C6.72956 23.9325 7.14661 23.6464 7.44355 23.2528C7.74045 22.8593 7.90112 22.3796 7.90127 21.8867V11.9996C7.90088 11.9825 7.90088 11.9654 7.90127 11.9483V6.30208C7.90127 5.79556 8.23705 5.3504 8.72409 5.21125L24.6069 0.673299C24.9492 0.575501 25.3176 0.644043 25.6018 0.858419ZM10.1702 10.4705L23.7841 6.58083V3.26816L10.1702 7.15783V10.4705ZM7.90127 25.8162C7.58142 26.0009 7.2383 26.1469 6.87878 26.2496L3.39388 27.2453C2.99669 27.3674 2.66282 27.6399 2.46366 28.0048C2.26331 28.3719 2.21537 28.803 2.3302 29.2052C2.44503 29.6073 2.71342 29.9482 3.07741 30.1541C3.43921 30.3588 3.86661 30.4139 4.26834 30.3079L6.25551 29.7403C6.72956 29.6049 7.14661 29.3188 7.44355 28.9252C7.74045 28.5318 7.90112 28.052 7.90127 27.5591V25.8162ZM23.7841 21.2782C23.4642 21.4629 23.1211 21.609 22.7616 21.7117L19.2674 22.71L19.2505 22.7147C19.0465 22.7696 18.8555 22.8645 18.6885 22.9939C18.5216 23.1233 18.3821 23.2846 18.278 23.4684C18.174 23.6523 18.1076 23.855 18.0827 24.0647C18.0577 24.2744 18.0747 24.4871 18.1327 24.6902C18.1907 24.8933 18.2885 25.0828 18.4205 25.2478C18.5524 25.4127 18.7159 25.5498 18.9013 25.651C19.0867 25.7521 19.2903 25.8154 19.5004 25.8372C19.7106 25.8589 19.9229 25.8386 20.1251 25.7775L20.1417 25.7727L22.1384 25.2024C22.6124 25.067 23.0294 24.7808 23.3264 24.3873C23.6233 23.9938 23.7839 23.5141 23.7841 23.0212V21.2782Z" fill="white"/>
<path fill-rule="evenodd" clip-rule="evenodd" d="M47.5889 6.68024H41.1798V23.5125H47.5889C53.0644 23.5125 55.9409 20.5068 55.9409 15.0964C55.9409 9.686 53.0644 6.68024 47.5889 6.68024ZM47.2609 20.7472H44.4853V9.44554H47.2609C51.071 9.44554 52.5597 11.1288 52.5597 15.0964C52.5597 19.064 51.071 20.7472 47.2609 20.7472Z" fill="white"/>
<path fill-rule="evenodd" clip-rule="evenodd" d="M70.2413 17.2368C70.2413 17.5494 70.216 17.8139 70.1656 18.0544H60.7033C60.9052 20.4349 62.1416 21.493 64.3368 21.493C65.876 21.493 66.7592 20.8918 67.1881 19.6414H70.0647C69.3834 22.4067 67.1629 23.8254 64.135 23.8254C60.5772 23.8254 57.6502 21.8056 57.6502 17.3089C57.6502 12.7883 60.5267 10.7684 64.0845 10.7684C67.7433 10.7684 70.2413 12.8364 70.2413 17.2368ZM60.7033 16.3471H67.1881C67.1124 14.3513 66.0779 13.1249 64.034 13.1249C62.0911 13.1249 60.9052 14.231 60.7033 16.3471Z" fill="white"/>
<path d="M75.3765 23.5123L70.5318 11.0084H73.812L77.3446 20.5787H77.4708L81.0033 11.0084H84.3088L79.4389 23.5123H75.3765Z" fill="white"/>
<path fill-rule="evenodd" clip-rule="evenodd" d="M97.1988 17.2368C97.1988 17.5494 97.1736 17.8139 97.1232 18.0544H87.6609C87.8628 20.4349 89.0992 21.493 91.2944 21.493C92.8336 21.493 93.7167 20.8918 94.1457 19.6414H97.0222C96.3409 22.4067 94.1205 23.8254 91.0925 23.8254C87.5347 23.8254 84.6077 21.8056 84.6077 17.3089C84.6077 12.7883 87.4843 10.7684 91.0421 10.7684C94.7008 10.7684 97.1988 12.8364 97.1988 17.2368ZM87.6609 16.3471H94.1457C94.07 14.3513 93.0355 13.1249 90.9916 13.1249C89.0487 13.1249 87.8628 14.231 87.6609 16.3471Z" fill="white"/>
<path d="M99.2593 23.5125V6.68024H102.489V23.5125H99.2593Z" fill="white"/>
<path fill-rule="evenodd" clip-rule="evenodd" d="M111.077 23.7533C107.62 23.7533 104.567 21.6132 104.567 17.2609C104.567 12.9085 107.62 10.7684 111.077 10.7684C114.509 10.7684 117.587 12.9085 117.587 17.2609C117.587 21.6132 114.509 23.7533 111.077 23.7533ZM111.077 21.1804C113.096 21.1804 114.534 19.8578 114.534 17.2609C114.534 14.6639 113.096 13.3413 111.077 13.3413C109.033 13.3413 107.595 14.6639 107.595 17.2609C107.595 19.8578 109.033 21.1804 111.077 21.1804Z" fill="white"/>
<path fill-rule="evenodd" clip-rule="evenodd" d="M126.955 10.7684C129.932 10.7684 132.733 12.8604 132.733 17.2609C132.733 21.6613 129.932 23.7533 126.955 23.7533C125.063 23.7533 123.523 22.9357 122.893 21.7094V28.0816H119.662V11.0089H122.893V12.8123C123.523 11.586 125.063 10.7684 126.955 10.7684ZM126.198 21.1804C128.141 21.1804 129.705 19.7857 129.705 17.2609C129.705 14.736 128.141 13.3413 126.198 13.3413C124.28 13.3413 122.741 14.736 122.741 17.2609C122.741 19.7857 124.28 21.1804 126.198 21.1804Z" fill="white"/>
<path fill-rule="evenodd" clip-rule="evenodd" d="M146.9 17.2368C146.9 17.5494 146.875 17.8139 146.824 18.0544H137.362C137.564 20.4349 138.8 21.493 140.995 21.493C142.535 21.493 143.418 20.8918 143.847 19.6414H146.723C146.042 22.4067 143.822 23.8254 140.794 23.8254C137.236 23.8254 134.309 21.8056 134.309 17.3089C134.309 12.7883 137.185 10.7684 140.743 10.7684C144.402 10.7684 146.9 12.8364 146.9 17.2368ZM137.362 16.3471H143.847C143.771 14.3513 142.737 13.1249 140.693 13.1249C138.75 13.1249 137.564 14.231 137.362 16.3471Z" fill="white"/>
<path d="M156.152 10.9122C156.531 10.9122 156.859 10.9603 157.162 11.0325V13.6294C156.783 13.5813 156.43 13.5573 156.152 13.5573C153.831 13.5573 152.191 14.9039 152.191 17.6932V23.5124H148.961V11.0084H152.191V13.9901H152.267C152.746 12.1626 154.058 10.9122 156.152 10.9122Z" fill="white"/>
</svg>
