<svg width="24" height="25" viewBox="0 0 24 25" fill="none" xmlns="http://www.w3.org/2000/svg">
<path fill-rule="evenodd" clip-rule="evenodd" d="M12.315 2.62964C14.745 2.62964 15.099 2.64264 16.123 2.68964C17.187 2.73864 17.914 2.90764 18.55 3.15464C19.2175 3.40551 19.8222 3.799 20.322 4.30764C20.8306 4.80741 21.2241 5.41214 21.475 6.07964C21.722 6.71564 21.891 7.44264 21.94 8.50664C21.988 9.57364 22 9.91364 22 12.6296V12.7096C22 15.3526 21.988 15.6966 21.94 16.7526C21.891 17.8166 21.722 18.5436 21.475 19.1796C21.2241 19.8471 20.8306 20.4519 20.322 20.9516C19.8222 21.4603 19.2175 21.8538 18.55 22.1046C17.914 22.3516 17.187 22.5206 16.123 22.5696C15.056 22.6176 14.716 22.6296 12 22.6296H11.92C9.277 22.6296 8.933 22.6176 7.877 22.5696C6.813 22.5206 6.086 22.3516 5.45 22.1046C4.7825 21.8538 4.17777 21.4603 3.678 20.9516C3.16936 20.4519 2.77587 19.8471 2.525 19.1796C2.278 18.5436 2.109 17.8166 2.06 16.7526C2.013 15.7286 2 15.3736 2 12.9446V12.3146C2 9.88464 2.013 9.53064 2.06 8.50664C2.109 7.44264 2.278 6.71564 2.525 6.07964C2.77587 5.41214 3.16936 4.80741 3.678 4.30764C4.17777 3.799 4.7825 3.40551 5.45 3.15464C6.086 2.90764 6.813 2.73864 7.877 2.68964C8.901 2.64264 9.256 2.62964 11.685 2.62964H12.315ZM12.234 4.43164H11.766C9.31 4.43164 8.982 4.44264 7.959 4.48964C6.984 4.53464 6.455 4.69664 6.102 4.83364C5.635 5.01564 5.302 5.23164 4.952 5.58164C4.602 5.93164 4.386 6.26464 4.204 6.73164C4.067 7.08464 3.904 7.61364 3.86 8.58864C3.813 9.61164 3.802 9.93964 3.802 12.3956V12.8636C3.802 15.3196 3.813 15.6476 3.86 16.6706C3.905 17.6456 4.067 18.1746 4.204 18.5276C4.386 18.9936 4.603 19.3276 4.952 19.6776C5.302 20.0276 5.635 20.2436 6.102 20.4256C6.455 20.5626 6.984 20.7256 7.959 20.7696C9.013 20.8176 9.329 20.8276 12 20.8276H12.08C14.677 20.8276 14.997 20.8176 16.04 20.7696C17.016 20.7246 17.545 20.5626 17.898 20.4256C18.364 20.2436 18.698 20.0276 19.048 19.6776C19.398 19.3276 19.614 18.9946 19.796 18.5276C19.933 18.1746 20.096 17.6456 20.14 16.6706C20.188 15.6156 20.198 15.3006 20.198 12.6296V12.5496C20.198 9.95264 20.188 9.63264 20.14 8.58964C20.095 7.61364 19.933 7.08464 19.796 6.73164C19.6358 6.29721 19.3802 5.90423 19.048 5.58164C18.7254 5.2495 18.3324 4.9939 17.898 4.83364C17.545 4.69664 17.016 4.53364 16.041 4.48964C15.018 4.44264 14.69 4.43164 12.234 4.43164ZM12 7.49464C12.6743 7.49464 13.3421 7.62746 13.9651 7.88552C14.5881 8.14358 15.1542 8.52182 15.631 8.99865C16.1078 9.47547 16.4861 10.0416 16.7441 10.6646C17.0022 11.2876 17.135 11.9553 17.135 12.6296C17.135 13.304 17.0022 13.9717 16.7441 14.5947C16.4861 15.2177 16.1078 15.7838 15.631 16.2606C15.1542 16.7375 14.5881 17.1157 13.9651 17.3738C13.3421 17.6318 12.6743 17.7646 12 17.7646C10.6381 17.7646 9.33201 17.2236 8.36901 16.2606C7.40601 15.2976 6.865 13.9915 6.865 12.6296C6.865 11.2678 7.40601 9.96165 8.36901 8.99865C9.33201 8.03565 10.6381 7.49464 12 7.49464ZM12 9.29664C11.116 9.29664 10.2683 9.64779 9.64321 10.2729C9.01815 10.8979 8.667 11.7457 8.667 12.6296C8.667 13.5136 9.01815 14.3614 9.64321 14.9864C10.2683 15.6115 11.116 15.9626 12 15.9626C12.884 15.9626 13.7317 15.6115 14.3568 14.9864C14.9818 14.3614 15.333 13.5136 15.333 12.6296C15.333 11.7457 14.9818 10.8979 14.3568 10.2729C13.7317 9.64779 12.884 9.29664 12 9.29664ZM17.338 6.09164C17.6563 6.09164 17.9615 6.21807 18.1865 6.44311C18.4116 6.66815 18.538 6.97338 18.538 7.29164C18.538 7.6099 18.4116 7.91512 18.1865 8.14017C17.9615 8.36521 17.6563 8.49164 17.338 8.49164C17.0197 8.49164 16.7145 8.36521 16.4895 8.14017C16.2644 7.91512 16.138 7.6099 16.138 7.29164C16.138 6.97338 16.2644 6.66815 16.4895 6.44311C16.7145 6.21807 17.0197 6.09164 17.338 6.09164Z" fill="white" fill-opacity="0.4"/>
</svg>
