<svg width="24" height="25" viewBox="0 0 24 25" fill="none" xmlns="http://www.w3.org/2000/svg">
<path fill-rule="evenodd" clip-rule="evenodd" d="M4.87127 8.25107C6.05475 8.25107 6.81154 7.44672 6.81154 6.4528C6.78885 5.41057 6.05474 4.62964 4.89394 4.62964C3.73388 4.62964 2.97711 5.41057 3.00053 6.4528C2.97711 7.44672 3.73389 8.25107 4.87127 8.25107ZM3.09568 9.67169V21.2481H6.6937V9.67169H3.09568ZM9.48193 9.67266C9.52951 10.6907 9.57708 11.9218 9.57708 13.3658H9.57854V21.2499H13.1766V14.5735C13.1766 14.2412 13.2234 13.9104 13.3186 13.6732C13.555 13.0109 14.1463 12.3243 15.141 12.3243C16.443 12.3243 16.9634 13.3417 16.9634 14.834V21.2499H20.5615V14.3832C20.5615 10.9754 18.7859 9.41284 16.4189 9.41284C14.5013 9.41284 13.3178 10.5246 12.8443 11.2587H12.7733L12.6071 9.67266H9.48193Z" fill="white" fill-opacity="0.4"/>
</svg>
