<svg width="25" height="25" viewBox="0 0 25 25" fill="none" xmlns="http://www.w3.org/2000/svg">
<path d="M7.5 11.6296V7.62964C7.5 6.30356 8.02678 5.03179 8.96447 4.0941C9.90215 3.15642 11.1739 2.62964 12.5 2.62964C13.8261 2.62964 15.0979 3.15642 16.0355 4.0941C16.9732 5.03179 17.5 6.30356 17.5 7.62964V11.6296M5.5 11.6296H19.5C20.6046 11.6296 21.5 12.5251 21.5 13.6296V20.6296C21.5 21.7342 20.6046 22.6296 19.5 22.6296H5.5C4.39543 22.6296 3.5 21.7342 3.5 20.6296V13.6296C3.5 12.5251 4.39543 11.6296 5.5 11.6296Z" stroke="#75A5FF" stroke-width="1.5" stroke-linecap="round" stroke-linejoin="round"/>
</svg>
