<svg width="25" height="25" viewBox="0 0 25 25" fill="none" xmlns="http://www.w3.org/2000/svg">
<g clip-path="url(#clip0_204_23)">
<path d="M5.86102 17.4125L6.39135 17.9428L5.86102 17.4125ZM2.1706 20.0423C1.8777 20.3352 1.8777 20.81 2.1706 21.1029C2.46349 21.3958 2.93836 21.3958 3.23126 21.1029L2.1706 20.0423ZM6.87212 22.8811C6.45791 22.8811 6.12212 23.2169 6.12212 23.6311C6.12212 24.0453 6.45791 24.3811 6.87212 24.3811V22.8811ZM15.4142 23.2565L14.8838 22.7262L14.8838 22.7262L15.4142 23.2565ZM21.8127 16.8581L22.3431 17.3885L21.8127 16.8581ZM19.1871 14.2325L18.6568 13.7021L19.1871 14.2325ZM16.1777 16.1813C15.8848 16.4742 15.8848 16.949 16.1777 17.2419C16.4705 17.5348 16.9454 17.5348 17.2383 17.2419L16.1777 16.1813ZM11.4999 18.4374C11.0857 18.4374 10.7499 18.7732 10.7499 19.1874C10.7499 19.6016 11.0857 19.9374 11.4999 19.9374V18.4374ZM21.8128 14.2325L22.3431 13.7021L21.8128 14.2325ZM9.19395 12.8179L9.00233 12.0928H9.00233L9.19395 12.8179ZM9.53442 12.728L9.72604 13.4531L9.53442 12.728ZM11.482 3.25044L11.2878 2.52601V2.52601L11.482 3.25044ZM16.2711 1.96701L16.0769 1.24257V1.24257L16.2711 1.96701ZM16.3232 10.9085L16.1317 10.1834L16.1317 10.1834L16.3232 10.9085ZM15.9809 10.999L16.1725 11.7241L16.1725 11.7241L15.9809 10.999ZM15.286 8.394L15.481 9.1182L15.286 8.394ZM8.50448 10.2089L8.6961 10.9341H8.6961L8.50448 10.2089ZM15.0267 15.4909H8.68945V16.9909H15.0267V15.4909ZM5.33069 16.8822L2.1706 20.0423L3.23126 21.1029L6.39135 17.9428L5.33069 16.8822ZM14.5106 24.3811C15.0291 24.3811 15.549 24.1823 15.9445 23.7868L14.8838 22.7262C14.7802 22.8298 14.6465 22.8811 14.5106 22.8811V24.3811ZM15.9445 23.7868L22.3431 17.3885L21.2824 16.3278L14.8838 22.7262L15.9445 23.7868ZM18.6568 13.7021L16.1777 16.1813L17.2383 17.2419L19.7175 14.7628L18.6568 13.7021ZM15.0267 18.4374H11.4999V19.9374H15.0267V18.4374ZM22.3431 13.7021C21.3251 12.6842 19.6747 12.6842 18.6568 13.7021L19.7175 14.7628C20.1496 14.3306 20.8503 14.3306 21.2824 14.7628L22.3431 13.7021ZM22.3431 17.3885C23.361 16.3705 23.361 14.7201 22.3431 13.7021L21.2824 14.7628C21.7146 15.195 21.7146 15.8956 21.2824 16.3278L22.3431 17.3885ZM8.68945 15.4909C7.42967 15.4909 6.22149 15.9914 5.33069 16.8822L6.39135 17.9428C7.00084 17.3333 7.82749 16.9909 8.68945 16.9909V15.4909ZM15.7499 17.7142C15.7499 18.1136 15.4261 18.4374 15.0267 18.4374V19.9374C16.2546 19.9374 17.2499 18.942 17.2499 17.7142H15.7499ZM15.0267 16.9909C15.4261 16.9909 15.7499 17.3147 15.7499 17.7142H17.2499C17.2499 16.4863 16.2546 15.4909 15.0267 15.4909V16.9909ZM9.38558 13.543L9.72604 13.4531L9.34279 12.0028L9.00233 12.0928L9.38558 13.543ZM11.4908 11.1613V9.61794H9.99085V11.1613H11.4908ZM11.4908 9.61794V4.21636H9.99085V9.61794H11.4908ZM11.6761 3.97488L16.4652 2.69144L16.0769 1.24257L11.2878 2.52601L11.6761 3.97488ZM16.7799 2.93292V7.78969H18.2799V2.93292H16.7799ZM16.7799 7.78969V9.34161H18.2799V7.78969H16.7799ZM16.1317 10.1834L15.7893 10.2739L16.1725 11.7241L16.5148 11.6337L16.1317 10.1834ZM15.481 9.1182L17.725 8.51389L17.3349 7.06549L15.091 7.6698L15.481 9.1182ZM10.5492 8.89283L8.31285 9.48384L8.6961 10.9341L10.9325 10.343L10.5492 8.89283ZM15.0385 9.69567C15.0385 9.42527 15.2199 9.18851 15.481 9.1182L15.091 7.6698C14.175 7.91648 13.5385 8.74707 13.5385 9.69567H15.0385ZM15.7893 10.2739C15.41 10.3741 15.0385 10.088 15.0385 9.69567H13.5385C13.5385 11.0722 14.8417 12.0758 16.1725 11.7241L15.7893 10.2739ZM16.7799 9.34161C16.7799 9.73682 16.5138 10.0825 16.1317 10.1834L16.5148 11.6337C17.5552 11.3588 18.2799 10.4177 18.2799 9.34161H16.7799ZM16.4652 2.69144C16.624 2.64889 16.7799 2.76854 16.7799 2.93292H18.2799C18.2799 1.78222 17.1884 0.944704 16.0769 1.24257L16.4652 2.69144ZM11.4908 4.21636C11.4908 4.10321 11.5668 4.00417 11.6761 3.97488L11.2878 2.52601C10.5228 2.73103 9.99085 3.42433 9.99085 4.21636H11.4908ZM9.72604 13.4531C10.7662 13.1782 11.4908 12.2372 11.4908 11.1613H9.99085C9.99085 11.5564 9.72476 11.9019 9.34279 12.0028L9.72604 13.4531ZM6.74994 11.5134C6.74994 12.8908 8.05395 13.8949 9.38558 13.543L9.00233 12.0928C8.62219 12.1933 8.24994 11.9066 8.24994 11.5134H6.74994ZM8.24994 11.5134C8.24994 11.2414 8.43313 11.0035 8.6961 10.9341L8.31285 9.48384C7.39165 9.72728 6.74994 10.5606 6.74994 11.5134H8.24994ZM6.87212 24.3811H14.5106V22.8811H6.87212V24.3811Z" fill="#75A5FF"/>
</g>
<defs>
<clipPath id="clip0_204_23">
<rect width="24" height="24" fill="white" transform="translate(0.5 0.629639)"/>
</clipPath>
</defs>
</svg>
