<svg width="25" height="25" viewBox="0 0 25 25" fill="none" xmlns="http://www.w3.org/2000/svg">
<g clip-path="url(#clip0_204_20)">
<path d="M9.25 2.87964H8.5C8.5 3.29385 8.83579 3.62964 9.25 3.62964V2.87964ZM13.75 2.87964V3.62964C14.1642 3.62964 14.5 3.29385 14.5 2.87964H13.75ZM17.75 7.62964C17.75 8.04385 18.0858 8.37964 18.5 8.37964C18.9142 8.37964 19.25 8.04385 19.25 7.62964H17.75ZM19.25 15.6296C19.25 15.2154 18.9142 14.8796 18.5 14.8796C18.0858 14.8796 17.75 15.2154 17.75 15.6296H19.25ZM20 4.11781C19.5858 4.11781 19.25 4.4536 19.25 4.86781C19.25 5.28202 19.5858 5.61781 20 5.61781V4.11781ZM21.7499 3.12964L22.4999 3.11985C22.4945 2.70949 22.1603 2.37964 21.7499 2.37964C21.3395 2.37964 21.0053 2.70949 21 3.11985L21.7499 3.12964ZM20.9999 6.62964C20.9999 7.04385 21.3357 7.37964 21.7499 7.37964C22.1641 7.37964 22.4999 7.04385 22.4999 6.62964H20.9999ZM23.5 5.61785C23.9142 5.61785 24.25 5.28206 24.25 4.86785C24.25 4.45363 23.9142 4.11785 23.5 4.11785V5.61785ZM19.5 11.618L19.5003 12.368C19.9144 12.3679 20.25 12.0321 20.25 11.618C20.25 11.2039 19.9144 10.8682 19.5003 10.868L19.5 11.618ZM14.9958 7.12964L15.7458 7.12499C15.7433 6.7126 15.4082 6.37964 14.9958 6.37964C14.5834 6.37964 14.2484 6.7126 14.2459 7.12499L14.9958 7.12964ZM14.9958 16.1334L14.2458 16.1337C14.2459 16.5478 14.5816 16.8834 14.9958 16.8834C15.4099 16.8834 15.7456 16.5478 15.7458 16.1337L14.9958 16.1334ZM10.5 11.618L10.4983 10.868C10.0848 10.869 9.75 11.2045 9.75 11.618C9.75 12.0316 10.0848 12.3671 10.4983 12.368L10.5 11.618ZM16.5 22.8796H6.5V24.3796H16.5V22.8796ZM5.25 21.6296V3.62964H3.75V21.6296H5.25ZM6.5 22.8796C5.80964 22.8796 5.25 22.32 5.25 21.6296H3.75C3.75 23.1484 4.98122 24.3796 6.5 24.3796V22.8796ZM17.75 21.6296C17.75 22.32 17.1904 22.8796 16.5 22.8796V24.3796C18.0188 24.3796 19.25 23.1484 19.25 21.6296H17.75ZM16.5 2.37964C17.1904 2.37964 17.75 2.93928 17.75 3.62964H19.25C19.25 2.11086 18.0188 0.879639 16.5 0.879639V2.37964ZM6.5 0.879639C4.98122 0.879639 3.75 2.11086 3.75 3.62964H5.25C5.25 2.93928 5.80964 2.37964 6.5 2.37964V0.879639ZM9.25 3.62964H13.75V2.12964H9.25V3.62964ZM13.75 2.37964H16.5V0.879639H13.75V2.37964ZM14.5 2.87964V1.62964H13V2.87964H14.5ZM6.5 2.37964H9.25V0.879639H6.5V2.37964ZM9.25 2.37964H13.75V0.879639H9.25V2.37964ZM10 2.87964V1.62964H8.5V2.87964H10ZM17.75 3.62964V7.62964H19.25V3.62964H17.75ZM19.25 21.6296V15.6296H17.75V21.6296H19.25ZM20 5.61781C21.3743 5.61781 22.482 4.50673 22.4999 3.13943L21 3.11985C20.9927 3.67679 20.5432 4.11781 20 4.11781V5.61781ZM20 5.61781C20.5475 5.61781 20.9999 6.06601 20.9999 6.62964H22.4999C22.4999 5.24725 21.3856 4.11781 20 4.11781V5.61781ZM23.5 4.11785C22.1145 4.11785 20.9999 5.24714 20.9999 6.62964H22.4999C22.4999 6.06612 22.9524 5.61785 23.5 5.61785V4.11785ZM21 3.13943C21.0178 4.5068 22.1258 5.61785 23.5 5.61785V4.11785C22.9568 4.11785 22.5071 3.67673 22.4999 3.11985L21 3.13943ZM19.5003 10.868C17.4363 10.8673 15.7587 9.19562 15.7458 7.12499L14.2459 7.13428C14.2638 10.0255 16.6072 12.367 19.4997 12.368L19.5003 10.868ZM15.7458 16.1337C15.7465 14.0526 17.4288 12.3688 19.5003 12.368L19.4997 10.868C16.5968 10.8691 14.2468 13.2275 14.2458 16.1331L15.7458 16.1337ZM10.4983 12.368C12.5665 12.3726 14.245 14.0549 14.2458 16.1337L15.7458 16.1331C15.7447 13.2308 13.4001 10.8744 10.5017 10.868L10.4983 12.368ZM14.2459 7.12499C14.233 9.19322 12.5591 10.8635 10.4983 10.868L10.5017 12.368C13.3896 12.3616 15.7279 10.0223 15.7458 7.13428L14.2459 7.12499Z" fill="#75A5FF"/>
</g>
<defs>
<clipPath id="clip0_204_20">
<rect width="24" height="24" fill="white" transform="translate(0.5 0.629639)"/>
</clipPath>
</defs>
</svg>
