<svg width="25" height="25" viewBox="0 0 25 25" fill="none" xmlns="http://www.w3.org/2000/svg">
<g clip-path="url(#clip0_204_32)">
<path d="M6.65643 13.3745L5.9648 13.0844C5.847 13.3653 5.91074 13.6895 6.1261 13.9048L6.65643 13.3745ZM7.68241 10.9283L6.99078 10.6382L7.68241 10.9283ZM20.7489 2.34414L20.7406 3.09409L20.7489 2.34414ZM22.5158 2.36384L23.2658 2.35548C23.2612 1.94781 22.9319 1.61844 22.5242 1.61389L22.5158 2.36384ZM22.5355 4.13072L21.7856 4.13909V4.13909L22.5355 4.13072ZM13.9513 17.1973L14.2414 17.8889L13.9513 17.1973ZM11.5052 18.2232L10.9748 18.7536C11.1902 18.9689 11.5144 19.0327 11.7952 18.9149L11.5052 18.2232ZM10.5128 5.78449L10.3895 6.52428L10.5128 5.78449ZM4.13105 8.0207L3.60072 7.49037C3.46007 7.63102 3.38105 7.82178 3.38105 8.0207C3.38105 8.21961 3.46007 8.41037 3.60072 8.55103L4.13105 8.0207ZM19.0952 14.3669L18.3554 14.4902V14.4902L19.0952 14.3669ZM16.859 20.7486L16.3286 21.2789C16.6215 21.5718 17.0964 21.5718 17.3893 21.2789L16.859 20.7486ZM6.84336 19.097C7.13625 18.8041 7.13625 18.3292 6.84336 18.0363C6.55047 17.7434 6.07559 17.7434 5.7827 18.0363L6.84336 19.097ZM1.95427 21.8647C1.66138 22.1576 1.66138 22.6325 1.95427 22.9254C2.24717 23.2183 2.72204 23.2183 3.01493 22.9254L1.95427 21.8647ZM3.72204 15.9756C4.01493 15.6828 4.01493 15.2079 3.72204 14.915C3.42914 14.6221 2.95427 14.6221 2.66138 14.915L3.72204 15.9756ZM0.832951 16.7434C0.540058 17.0363 0.540058 17.5112 0.832951 17.8041C1.12584 18.097 1.60072 18.097 1.89361 17.8041L0.832951 16.7434ZM9.96468 22.2183C10.2576 21.9254 10.2576 21.4505 9.96468 21.1576C9.67179 20.8647 9.19691 20.8647 8.90402 21.1576L9.96468 22.2183ZM7.07559 22.9861C6.7827 23.2789 6.7827 23.7538 7.07559 24.0467C7.36848 24.3396 7.84336 24.3396 8.13625 24.0467L7.07559 22.9861ZM7.34806 13.6646L8.37404 11.2184L6.99078 10.6382L5.9648 13.0844L7.34806 13.6646ZM20.7406 3.09409L22.5075 3.1138L22.5242 1.61389L20.7573 1.59418L20.7406 3.09409ZM21.7659 2.37221L21.7856 4.13909L23.2855 4.12236L23.2658 2.35548L21.7659 2.37221ZM13.6612 16.5056L11.2151 17.5316L11.7952 18.9149L14.2414 17.8889L13.6612 16.5056ZM12.0355 17.6929L7.18676 12.8442L6.1261 13.9048L10.9748 18.7536L12.0355 17.6929ZM21.7856 4.13909C21.8457 9.53027 18.6332 14.4203 13.6612 16.5056L14.2414 17.8889C19.7762 15.5675 23.3524 10.1239 23.2855 4.12236L21.7856 4.13909ZM8.37404 11.2184C10.4594 6.24651 15.3494 3.03397 20.7406 3.09409L20.7573 1.59418C14.7558 1.52725 9.3122 5.10348 6.99078 10.6382L8.37404 11.2184ZM11.3254 5.15958L10.6361 5.04469L10.3895 6.52428L11.0788 6.63917L11.3254 5.15958ZM3.88192 7.20917L3.60072 7.49037L4.66138 8.55103L4.94258 8.26983L3.88192 7.20917ZM3.60072 8.55103L7.13625 12.0866L8.19691 11.0259L4.66138 7.49037L3.60072 8.55103ZM10.6361 5.04469C8.16727 4.63322 5.65171 5.43937 3.88192 7.20917L4.94258 8.26983C6.36983 6.84257 8.39851 6.19245 10.3895 6.52428L10.6361 5.04469ZM18.2405 13.8008L18.3554 14.4902L19.835 14.2436L19.7201 13.5543L18.2405 13.8008ZM16.6098 19.9371L16.3286 20.2183L17.3893 21.2789L17.6705 20.9978L16.6098 19.9371ZM17.3893 20.2183L13.8538 16.6828L12.7931 17.7434L16.3286 21.2789L17.3893 20.2183ZM18.3554 14.4902C18.6872 16.4812 18.0371 18.5098 16.6098 19.9371L17.6705 20.9978C19.4403 19.228 20.2464 16.7124 19.835 14.2436L18.3554 14.4902ZM12.9144 4.30839L20.5713 11.9652L21.6319 10.9046L13.9751 3.24773L12.9144 4.30839ZM5.7827 18.0363L1.95427 21.8647L3.01493 22.9254L6.84336 19.097L5.7827 18.0363ZM2.66138 14.915L0.832951 16.7434L1.89361 17.8041L3.72204 15.9756L2.66138 14.915ZM8.90402 21.1576L7.07559 22.9861L8.13625 24.0467L9.96468 22.2183L8.90402 21.1576Z" fill="#75A5FF"/>
</g>
<defs>
<clipPath id="clip0_204_32">
<rect width="24" height="24" fill="white" transform="translate(0.5 0.629639)"/>
</clipPath>
</defs>
</svg>
