<svg width="24" height="25" viewBox="0 0 24 25" fill="none" xmlns="http://www.w3.org/2000/svg">
<path d="M18.4514 11.4233L19.147 11.446V8.16201L18.8688 8.14168C17.9404 8.0738 17.0653 7.68172 16.3967 7.034C15.728 6.38627 15.3083 5.52411 15.211 4.59828L15.1827 4.32965H12.3214L12.2968 15.8005C12.2968 16.9856 11.2413 17.9509 10.0159 17.9509C9.4374 17.9509 8.88262 17.7211 8.47357 17.312C8.06453 16.903 7.83473 16.3482 7.83473 15.7697C7.83473 15.1912 8.06453 14.6365 8.47357 14.2274C8.88262 13.8184 9.4374 13.5886 10.0159 13.5886C10.0705 13.5886 10.1167 13.5949 10.1816 13.6038L10.1817 13.6038L10.1822 13.6038C10.2106 13.6077 10.2427 13.6121 10.2806 13.6167L10.6163 13.6569V10.6414L10.3351 10.6238L10.2731 10.6195L10.2731 10.6195C10.1955 10.6141 10.1048 10.6078 10.0159 10.6078C8.99505 10.6078 7.99715 10.9105 7.14837 11.4776C6.29958 12.0448 5.63803 12.8509 5.24738 13.794C4.85673 14.7371 4.75452 15.7749 4.95367 16.7761C5.15282 17.7773 5.6444 18.697 6.36623 19.4188C7.08806 20.1406 8.00773 20.6322 9.00894 20.8314C10.0101 21.0305 11.0479 20.9283 11.9911 20.5376C12.9342 20.147 13.7403 19.4854 14.3074 18.6367C14.8745 17.7879 15.1773 16.79 15.1773 15.7691V10.0428C15.4987 10.3725 15.8692 10.653 16.2773 10.8735C16.9451 11.2345 17.6923 11.4234 18.4514 11.4233Z" fill="white" fill-opacity="0.4"/>
</svg>
