<svg width="24" height="25" viewBox="0 0 24 25" fill="none" xmlns="http://www.w3.org/2000/svg">
<path fill-rule="evenodd" clip-rule="evenodd" d="M20.9631 6.70503C21.2745 7.01647 21.4989 7.40406 21.614 7.82922C22.2764 10.4957 22.1234 14.7071 21.6269 17.4765C21.5118 17.9017 21.2874 18.2893 20.976 18.6007C20.6645 18.9121 20.2769 19.1366 19.8518 19.2516C18.2953 19.6761 12.031 19.6761 12.031 19.6761C12.031 19.6761 5.76672 19.6761 4.21029 19.2516C3.78514 19.1366 3.39754 18.9121 3.08609 18.6007C2.77465 18.2893 2.55024 17.9017 2.43519 17.4765C1.76888 14.8216 1.95154 10.6076 2.42233 7.84208C2.53737 7.41693 2.76179 7.02933 3.07323 6.71789C3.38467 6.40645 3.77227 6.18203 4.19743 6.06699C5.75386 5.6425 12.0182 5.62964 12.0182 5.62964C12.0182 5.62964 18.2825 5.62964 19.8389 6.05412C20.264 6.16917 20.6516 6.39359 20.9631 6.70503ZM15.2211 12.6529L10.0244 15.6628V9.6429L15.2211 12.6529Z" fill="white" fill-opacity="0.4"/>
</svg>
